<svg id="Layer_3" enable-background="new 0 0 64 64" height="512" viewBox="0 0 64 64" width="512" xmlns="http://www.w3.org/2000/svg"><g><path d="m28 18c0 2.6 1.661 4.891 4.133 5.7.306.1.545.342.643.648.097.307.04.642-.152.9-.414.555-.624 1.144-.624 1.752 0 1.942 2.204 3.609 5 3.937v-2.22c-1.228-.669-2-2.442-2-3.715 0-.596.179-1.076.531-1.425.593-.589 1.417-.581 2.212-.576l.257.001.256-.001c.797-.001 1.62-.012 2.212.576.353.35.532.829.532 1.425 0 1.273-.772 3.046-2 3.715v2.22c2.796-.329 5-1.996 5-3.937 0-.608-.21-1.197-.624-1.751-.192-.258-.25-.593-.152-.9.097-.307.336-.548.643-.648 2.472-.81 4.133-3.101 4.133-5.701 0-3.309-2.691-6-6-6-1.23 0-2.416.374-3.428 1.08-.344.24-.801.24-1.145 0-1.011-.706-2.197-1.08-3.427-1.08-3.309 0-6 2.691-6 6zm15-3c1.654 0 3 1.346 3 3h-2c0-.551-.449-1-1-1s-1 .449-1 1h-2c0-1.654 1.346-3 3-3zm-10 0c1.654 0 3 1.346 3 3h-2c0-.551-.449-1-1-1s-1 .449-1 1h-2c0-1.654 1.346-3 3-3z"/><path d="m30.581 10.778c-.372-.48-.951-.778-1.581-.778-1.103 0-2 .897-2 2 0 .503.205.96.526 1.319.786-1.084 1.835-1.961 3.055-2.541z"/><path d="m48.474 13.319c.321-.359.526-.816.526-1.319 0-1.103-.897-2-2-2-.63 0-1.209.298-1.581.778 1.22.58 2.269 1.457 3.055 2.541z"/><path d="m24.529 9.939c-1.928 2.41-3.122 5.344-3.442 8.399l.466-.233c.31-.154.678-.138.973.044.294.183.474.504.474.851v1.838c0 1.379.153 2.748.457 4.086.784-.591 1.751-.924 2.779-.924h.764c.321 0 .623.154.811.416.188.261.239.596.138.901l-.733 2.199c-.143.429-.216.876-.216 1.328 0 1.123.438 2.179 1.231 2.973.826.825 1.867 1.383 3.011 1.611 2.078.416 4.072 1.307 5.768 2.578l.99.744.99-.743c1.695-1.271 3.689-2.163 5.767-2.579 1.145-.229 2.186-.786 3.011-1.611.794-.794 1.232-1.85 1.232-2.973 0-.452-.073-.899-.216-1.33l-.733-2.198c-.102-.305-.05-.64.138-.901s.49-.415.811-.415h.764c1.028 0 1.995.333 2.779.924.304-1.339.457-2.707.457-4.086v-1.838c0-.347.18-.668.474-.851s.663-.198.973-.044l.466.233c-.32-3.055-1.514-5.989-3.442-8.399l-.252-.315c-.272-.34-.293-.817-.051-1.179l1.247-1.87c-1.495-.382-3.029-.575-4.577-.575h-1.838c-.369 0-.708-.203-.882-.528s-.155-.72.05-1.026l.944-1.417c-2.703.175-5.341 1.143-7.512 2.771-.355.267-.845.267-1.2 0-2.17-1.627-4.809-2.596-7.512-2.771l.944 1.417c.205.307.224.701.05 1.026s-.513.528-.882.528h-1.838c-1.548 0-3.083.193-4.577.575l1.247 1.87c.242.362.221.839-.051 1.179zm4.471-1.939c1.498 0 2.854.841 3.538 2.14.475-.088.962-.14 1.462-.14 1.415 0 2.785.37 4 1.075 1.215-.705 2.585-1.075 4-1.075.5 0 .987.052 1.462.14.684-1.299 2.04-2.14 3.538-2.14 2.206 0 4 1.794 4 4 0 1.25-.587 2.401-1.536 3.146.341.888.536 1.848.536 2.854 0 3.058-1.722 5.794-4.39 7.138.257.598.39 1.227.39 1.862 0 3.309-3.589 6-8 6s-8-2.691-8-6c0-.635.133-1.264.39-1.862-2.668-1.344-4.39-4.08-4.39-7.138 0-1.006.195-1.966.536-2.854-.949-.745-1.536-1.896-1.536-3.146 0-2.206 1.794-4 4-4z"/><path d="m11 38.03v.724c0 4.639 2.318 8.367 6 9.862v-1.313c0-.272.023-.541.063-.807-2.634-2.379-4.688-5.273-6.063-8.466z"/><path d="m52 45.024v-1.526c0-3.567-1.275-6.932-3.589-9.6-.957.738-2.064 1.253-3.261 1.492-1.786.358-3.501 1.125-4.959 2.218l-1.591 1.192c-.178.133-.389.2-.6.2s-.422-.067-.6-.2l-1.59-1.193c-1.458-1.093-3.173-1.859-4.959-2.217-1.197-.239-2.304-.754-3.261-1.492-2.315 2.668-3.59 6.033-3.59 9.6v1.526c0 2.337.804 4.63 2.265 6.457 1.119 1.398 1.735 3.155 1.735 4.946 0 .528-.125 1.058-.362 1.532l-.487.975c-.099.198-.151.419-.151.639 0 .787.64 1.427 1.427 1.427h.573v-2h2v2h1v-2h2v2h.171c1.009 0 1.829-.82 1.829-1.829 0-.488-.19-.947-.536-1.293-1.589-1.588-2.464-3.702-2.464-5.949v-.342c0-.925-.174-1.83-.518-2.689-.885-2.213-2.188-4.19-3.875-5.876l-.314-.314 1.414-1.414.314.314c1.878 1.878 3.331 4.082 4.318 6.548.439 1.096.661 2.251.661 3.431v.342c0 1.713.667 3.324 1.878 4.536.682.682 1.062 1.578 1.105 2.536h.033c.043-.957.423-1.854 1.105-2.536 1.212-1.212 1.879-2.823 1.879-4.536v-.342c0-1.18.222-2.335.661-3.431.987-2.467 2.439-4.67 4.318-6.548l.314-.314 1.414 1.414-.314.314c-1.686 1.686-2.989 3.663-3.875 5.876-.344.859-.518 1.764-.518 2.689v.342c0 2.248-.875 4.361-2.464 5.95-.346.345-.536.804-.536 1.292 0 1.009.82 1.829 1.829 1.829h.171v-2h2v2h1v-2h2v2h.573c.787 0 1.427-.64 1.427-1.427 0-.22-.052-.441-.151-.639l-.487-.974c-.237-.475-.362-1.004-.362-1.533 0-1.792.616-3.548 1.735-4.947 1.461-1.826 2.265-4.119 2.265-6.456z"/><path d="m11 28.37c0 .334.012.667.027.999l.608-.304c.842-.421 1.365-1.268 1.365-2.209 0-.827-.411-1.595-1.099-2.054-.823-.548-1.475-1.299-1.901-2.173-.426.874-1.078 1.625-1.901 2.173-.688.459-1.099 1.227-1.099 2.054 0 .941.523 1.787 1.365 2.208l.635.318v-1.012-1.37h2z"/><path d="m56.445 45.471c-.556-.835-1.458-1.341-2.445-1.433v.986c0 2.79-.96 5.526-2.703 7.706-.837 1.045-1.297 2.358-1.297 3.697 0 .22.052.441.151.639l.487.974c.151.302.238.628.295.96h3.278c.435 0 .789-.354.789-.789v-.105c0-.301-.167-.571-.436-.706-.973-.487-1.564-1.442-1.564-2.505 0-.873.417-1.707 1.115-2.231l1.563-1.173c.828-.621 1.322-1.609 1.322-2.642v-1.546c0-.654-.192-1.288-.555-1.832z"/><path d="m22 45.024v-.986c-.987.092-1.889.598-2.445 1.433-.363.544-.555 1.178-.555 1.832v1.546c0 1.034.494 2.021 1.321 2.643l1.563 1.172c.699.524 1.116 1.357 1.116 2.231 0 1.063-.591 2.019-1.542 2.494-.291.145-.458.416-.458.716v.105c0 .436.354.79.789.79h3.278c.057-.332.144-.658.295-.959l.487-.975c.099-.198.151-.419.151-.639 0-1.339-.46-2.652-1.297-3.697-1.743-2.18-2.703-4.916-2.703-7.706z"/><path d="m38.272 25.001-.272.001-.272-.001c-.225-.002-.539-.004-.728.019.009.819.682 1.94 1.003 1.983.315-.043.988-1.164.997-1.983-.188-.023-.503-.021-.728-.019z"/></g></svg>